<svg width="16" height="17" viewBox="0 0 16 17" fill="none" xmlns="http://www.w3.org/2000/svg">
<path fill-rule="evenodd" clip-rule="evenodd" d="M8.66829 3.66266C8.45593 3.87966 8.45593 4.23025 8.66975 4.44577L11.0967 6.89845L11.1527 6.948C11.367 7.11309 11.6729 7.09589 11.8676 6.89698C11.9737 6.78848 12.0268 6.6475 12.0268 6.50653C12.0268 6.36407 11.9737 6.22236 11.8661 6.11386L9.43993 3.66118L9.38388 3.61181C9.16946 3.44728 8.86296 3.46442 8.66829 3.66266ZM2.47706 7.95064C2.20822 7.98481 2 8.21782 2 8.49989C2 8.80546 2.24436 9.05346 2.54545 9.05346H12.1338L8.66982 12.5542L8.62082 12.6108C8.45747 12.8273 8.4737 13.1384 8.66836 13.3373C8.88073 13.5536 9.22618 13.5543 9.43927 13.3388L13.8393 8.89182L13.8878 8.83613C13.9616 8.73874 14 8.61983 14 8.49989C14 8.42829 13.9862 8.3567 13.9585 8.28879C13.8742 8.08139 13.6756 7.94632 13.4545 7.94632H2.54545L2.47706 7.95064Z" fill="#200E32"/>
</svg>
