<svg width="16" height="17" viewBox="0 0 16 17" fill="none" xmlns="http://www.w3.org/2000/svg">
<path fill-rule="evenodd" clip-rule="evenodd" d="M7.11305 3.04545C7.11305 2.74436 7.36104 2.5 7.66661 2.5C7.97218 2.5 8.22018 2.74436 8.22018 3.04545V13.9545C8.22018 14.1756 8.08511 14.3742 7.87771 14.4585C7.8098 14.4862 7.73821 14.5 7.66661 14.5C7.52269 14.5 7.38023 14.4447 7.27469 14.3393L2.82769 9.93927C2.61216 9.72618 2.6129 9.38073 2.82916 9.16836C3.04616 8.956 3.39675 8.956 3.61228 9.16982L7.11305 12.6338V3.04545ZM11.7207 9.16975C11.9363 8.95593 12.2868 8.95593 12.5038 9.16829C12.7201 9.38066 12.7208 9.72611 12.5053 9.93993L10.0526 12.3661C9.94414 12.4737 9.80243 12.5268 9.65998 12.5268C9.519 12.5268 9.37803 12.4737 9.26953 12.3676C9.05253 12.1552 9.05179 11.8105 9.26805 11.5967L11.7207 9.16975Z" fill="#200E32"/>
</svg>
