<svg width="16" height="16" viewBox="0 0 16 16" fill="none" xmlns="http://www.w3.org/2000/svg">
<path fill-rule="evenodd" clip-rule="evenodd" d="M2.82714 5.16266C3.04149 4.94627 3.38898 4.94479 3.60333 5.16415L8.38773 10.0482C8.60208 10.2668 8.60135 10.62 8.38627 10.8371C8.27946 10.945 8.139 11 7.99927 11C7.85808 11 7.71762 10.945 7.61082 10.8357L2.82641 5.95163C2.61206 5.73301 2.6128 5.3798 2.82714 5.16266ZM12.3946 5.16423C12.609 4.94486 12.9565 4.94635 13.1708 5.16274C13.3859 5.37987 13.3866 5.73309 13.173 5.95171L9.99585 9.19533C9.88904 9.30464 9.74785 9.35967 9.60739 9.35967C9.46766 9.35967 9.3272 9.30464 9.2204 9.19682C9.00532 8.97969 9.00459 8.62647 9.2182 8.40785L12.3946 5.16423Z" fill="#BDBDBD"/>
</svg>
