<svg width="82" height="28" viewBox="0 0 82 28" fill="none" xmlns="http://www.w3.org/2000/svg">
<path d="M37.3149 21.5924C36.1464 22.1598 34.6218 22.4435 32.7411 22.4435C30.3212 22.4435 28.3991 21.7291 26.9747 20.3004C25.5573 18.8649 24.8486 16.9542 24.8486 14.5685C24.8486 12.0597 25.6403 10.0089 27.2236 8.41614C28.8139 6.81653 30.864 6.01672 33.3738 6.01672C34.9433 6.01672 36.257 6.21838 37.3149 6.6217V9.8927C36.2293 9.26379 34.9986 8.94934 33.6227 8.94934C32.0532 8.94934 30.7983 9.44495 29.8579 10.4362C28.9176 11.4274 28.4475 12.7228 28.4475 14.3224C28.4475 15.881 28.8934 17.1354 29.7853 18.0856C30.6773 19.0358 31.8838 19.5109 33.4049 19.5109C34.8361 19.5109 36.1395 19.1691 37.3149 18.4855V21.5924Z" fill="#FEFEFF"/>
<path d="M39.1506 16.5475C39.1506 14.6813 39.7141 13.215 40.8411 12.1486C41.975 11.0822 43.4961 10.549 45.4044 10.549C47.2505 10.549 48.7163 11.0753 49.8018 12.1281C50.8874 13.1739 51.4301 14.5822 51.4301 16.3527C51.4301 18.212 50.8735 19.692 49.7604 20.7926C48.6472 21.8932 47.1399 22.4435 45.2385 22.4435C43.3717 22.4435 41.8886 21.9171 40.7892 20.8644C39.6968 19.8048 39.1506 18.3658 39.1506 16.5475ZM42.542 16.5065C42.542 18.7692 43.4754 19.9005 45.3422 19.9005C47.133 19.9005 48.0284 18.7384 48.0284 16.4142C48.0284 14.1993 47.1261 13.0919 45.3215 13.0919C44.4434 13.0919 43.7589 13.3893 43.268 13.984C42.784 14.5787 42.542 15.4196 42.542 16.5065Z" fill="#FEFEFF"/>
<path d="M53.1103 16.5475C53.1103 14.6813 53.6738 13.215 54.8008 12.1486C55.9347 11.0822 57.4558 10.549 59.3641 10.549C61.2102 10.549 62.676 11.0753 63.7615 12.1281C64.8471 13.1739 65.3898 14.5822 65.3898 16.3527C65.3898 18.212 64.8332 19.692 63.72 20.7926C62.6069 21.8932 61.0996 22.4435 59.1982 22.4435C57.3314 22.4435 55.8483 21.9171 54.7489 20.8644C53.6565 19.8048 53.1103 18.3658 53.1103 16.5475ZM56.5017 16.5065C56.5017 18.7692 57.4351 19.9005 59.3019 19.9005C61.0927 19.9005 61.9881 18.7384 61.9881 16.4142C61.9881 14.1993 61.0858 13.0919 59.2812 13.0919C58.4031 13.0919 57.7186 13.3893 57.2276 13.984C56.7437 14.5787 56.5017 15.4196 56.5017 16.5065Z" fill="#FEFEFF"/>
<path d="M79.028 22.1666H74.9625L71.1459 16.5577H71.1044V22.1666H67.7545V5.38098H71.1044V16.0656H71.1459L74.7239 10.8258H78.7169L74.4647 16.1783L79.028 22.1666Z" fill="#FEFEFF"/>
<path fill-rule="evenodd" clip-rule="evenodd" d="M4.08611 14.0233L2.95918 11.2161L11.295 13.5886L2.29491 9.55906L0.56543 5.25L1.08216 5.44936L15.2607 11.273L6.46693 19.9563L4.55345 15.1875L9.18283 16.2737L4.08611 14.0233Z" fill="#60E1BA"/>
<path fill-rule="evenodd" clip-rule="evenodd" d="M0 21.8677L15.8257 21.176L11.8935 23.334L0 21.8677Z" fill="#60E1BA"/>
</svg>
