<svg width="17" height="16" viewBox="0 0 17 16" fill="none" xmlns="http://www.w3.org/2000/svg">
<path fill-rule="evenodd" clip-rule="evenodd" d="M15.0166 7.57293C14.9207 7.66767 14.791 7.7201 14.6562 7.71854V7.70681C14.3745 7.70681 14.1461 7.47842 14.1461 7.1967V5.50218C14.1461 3.46758 13.0321 2.35354 11.0033 2.35354H6.00187C3.97314 2.35354 2.85324 3.47345 2.85324 5.50218V10.5036C2.85324 12.5265 3.97314 13.6464 6.00187 13.6464H11.0033C13.0321 13.6464 14.1461 12.5265 14.1461 10.5036C14.1461 10.2219 14.3745 9.99353 14.6562 9.99353C14.938 9.99353 15.1663 10.2219 15.1663 10.5036C15.1663 13.0718 13.5715 14.6666 11.0033 14.6666H6.00187C3.42785 14.6666 1.83301 13.0718 1.83301 10.5036V5.50218C1.83301 2.92815 3.42785 1.33331 6.00187 1.33331H11.0033C13.5598 1.33331 15.1663 2.92815 15.1663 5.50218V7.21429C15.1664 7.34904 15.1124 7.4782 15.0166 7.57293ZM8.52313 5.23246C8.57801 5.23245 8.63196 5.24138 8.68303 5.25844C8.89551 5.32005 9.05083 5.51611 9.05083 5.74844V7.34328H10.7864C10.8466 7.34258 10.9057 7.35264 10.9613 7.37242C11.0389 7.39686 11.1102 7.43996 11.1685 7.4989C11.2632 7.59474 11.3157 7.72451 11.3141 7.85926C11.3142 8.13647 11.0928 8.363 10.8157 8.36937H10.7805H6.27159C6.2282 8.36839 6.18617 8.36207 6.14611 8.35105C5.91738 8.2996 5.74659 8.09657 5.74388 7.85339C5.74232 7.71865 5.79475 7.58888 5.88949 7.49304C5.98422 7.3972 6.11338 7.34327 6.24814 7.34328H8.00715V5.74258C8.01346 5.46123 8.24172 5.23555 8.52313 5.23246ZM8.01888 10.2339V9.64759V9.58896C8.02346 9.45364 8.08166 9.32569 8.18064 9.23331C8.27962 9.14093 8.41127 9.09168 8.54658 9.09643C8.68244 9.09944 8.81132 9.15716 8.90404 9.2565C8.99676 9.35584 9.04546 9.4884 9.03911 9.62414V10.2691C9.03452 10.4044 8.97633 10.5324 8.87734 10.6248C8.77836 10.7171 8.64671 10.7664 8.5114 10.7616C8.23103 10.749 8.01221 10.5145 8.01888 10.2339Z" fill="currentColor"/>
</svg>
