<svg width="16" height="16" viewBox="0 0 16 16" fill="none" xmlns="http://www.w3.org/2000/svg">
<path d="M14.5043 13.7377L12.2128 11.4972L12.159 11.4155C12.0592 11.3161 11.9226 11.2601 11.7801 11.2601C11.6376 11.2601 11.501 11.3161 11.4011 11.4155C9.45364 13.2022 6.45275 13.2993 4.38865 11.6425C2.32456 9.9856 1.83776 7.08889 3.25111 4.87343C4.66445 2.65796 7.53937 1.81121 9.96922 2.89474C12.3991 3.97826 13.6299 6.65584 12.8453 9.15171C12.7888 9.33202 12.835 9.5281 12.9665 9.66609C13.0979 9.80408 13.2947 9.86302 13.4827 9.82071C13.6706 9.77839 13.8212 9.64125 13.8777 9.46094C14.8156 6.49908 13.3991 3.31168 10.5447 1.96068C7.69031 0.609687 4.25454 1.50053 2.46002 4.05692C0.665498 6.61332 1.05077 10.0681 3.36661 12.1863C5.68244 14.3046 9.23384 14.4506 11.7234 12.5299L13.7524 14.5137C13.962 14.7176 14.3008 14.7176 14.5103 14.5137C14.7197 14.3068 14.7197 13.9737 14.5103 13.7668L14.5043 13.7377Z" fill="#757575"/>
</svg>
