<svg width="24" height="25" viewBox="0 0 24 25" fill="none" xmlns="http://www.w3.org/2000/svg">
<g clip-path="url(#bal-clip)">
<path fill-rule="evenodd" clip-rule="evenodd" d="M12 0.5C18.6264 0.5 24 5.8736 24 12.5C24 19.1264 18.6264 24.5 12 24.5C5.3736 24.5 0 19.1264 0 12.5C0 5.8736 5.3736 0.5 12 0.5Z" fill="#1E1E1E"/>
<path d="M12.1804 17.516C8.34282 17.516 5.23242 16.4072 5.23242 14.9216C5.23242 14.1464 6.07962 13.448 7.43562 12.956C8.49402 13.6352 10.27 13.9832 12.2836 13.9832C14.2492 13.9832 15.9868 13.5584 17.0548 12.908C18.334 13.3952 19.1284 14.0744 19.1284 14.8232C19.1284 16.3112 16.018 17.516 12.1804 17.516Z" fill="white"/>
<path d="M12.2211 13.6497C9.31233 13.6497 6.95312 12.7377 6.95312 11.6121C6.95312 10.9881 7.68032 10.4289 8.82032 10.0569C9.63392 10.4817 10.8531 10.7529 12.2211 10.7529C13.5891 10.7529 14.8083 10.4817 15.6219 10.0569C16.7643 10.4313 17.4891 10.9881 17.4891 11.6121C17.4915 12.7377 15.1323 13.6497 12.2211 13.6497Z" fill="white"/>
<path d="M12.2017 10.4144C9.95291 10.4144 8.12891 9.66083 8.12891 8.73443C8.12891 7.80803 9.95291 7.05443 12.2017 7.05443C14.4505 7.05443 16.2745 7.80803 16.2745 8.73443C16.2745 9.66083 14.4505 10.4144 12.2017 10.4144Z" fill="white"/>
</g>
<defs>
<clipPath id="bal-clip">
<rect width="24" height="24" fill="white" transform="translate(0 0.5)"/>
</clipPath>
</defs>
</svg>
