<svg width="24" height="25" viewBox="0 0 24 25" fill="none" xmlns="http://www.w3.org/2000/svg">
<g clip-path="url(#clip0)">
<path d="M23.6227 15.4204C22.02 21.8491 15.5088 25.7614 9.07941 24.1583C2.65271 22.5556 -1.25963 16.0441 0.343757 9.61596C1.94574 3.18662 8.4569 -0.726016 14.8843 0.87667C21.3132 2.47936 25.2253 8.99163 23.6225 15.4206L23.6226 15.4204H23.6227Z" fill="#F7931A"/>
<path d="M17.291 10.7903C17.5299 9.1934 16.3141 8.33498 14.6516 7.76233L15.1909 5.59914L13.8741 5.27103L13.3491 7.37726C13.0029 7.29092 12.6474 7.20957 12.2941 7.12892L12.8229 5.00878L11.5069 4.68066L10.9673 6.84315C10.6808 6.77793 10.3994 6.71347 10.1265 6.64554L10.128 6.63874L8.31209 6.18528L7.9618 7.59171C7.9618 7.59171 8.93876 7.81565 8.91817 7.82943C9.4514 7.96252 9.54783 8.31551 9.53182 8.59529L8.91747 11.0597C8.95418 11.069 9.00181 11.0825 9.05437 11.1036C9.01043 11.0927 8.96369 11.0808 8.91518 11.0692L8.05407 14.5214C7.9889 14.6834 7.82349 14.9266 7.45068 14.8342C7.46388 14.8534 6.49361 14.5954 6.49361 14.5954L5.83984 16.1027L7.55345 16.5299C7.87224 16.6098 8.18463 16.6935 8.49228 16.7721L7.94737 18.9601L9.26265 19.2883L9.80228 17.1235C10.1616 17.221 10.5103 17.311 10.8517 17.3958L10.3139 19.5504L11.6307 19.8785L12.1756 17.6946C14.421 18.1196 16.1094 17.9482 16.82 15.9172C17.3927 14.2821 16.7915 13.3389 15.6102 12.7238C16.4706 12.5254 17.1187 11.9595 17.2915 10.7905L17.2911 10.7902L17.291 10.7903ZM14.2825 15.0091C13.8755 16.6443 11.1224 15.7604 10.2298 15.5387L10.9529 12.64C11.8454 12.8628 14.7078 13.3038 14.2825 15.0091H14.2825ZM14.6897 10.7666C14.3185 12.254 12.027 11.4984 11.2837 11.3131L11.9392 8.6841C12.6826 8.86939 15.0764 9.21522 14.6898 10.7666H14.6897Z" fill="white"/>
</g>
<defs>
<clipPath id="clip0">
<rect width="24" height="24" fill="white" transform="translate(0 0.5)"/>
</clipPath>
</defs>
</svg>
