<svg width="16" height="16" viewBox="0 0 16 16" fill="none" xmlns="http://www.w3.org/2000/svg">
<g clip-path="url(#comp-clip)">
<path d="M8.23176 15.36C12.4733 15.36 15.9118 11.9215 15.9118 7.68C15.9118 3.43845 12.4733 0 8.23176 0C3.99021 0 0.551758 3.43845 0.551758 7.68C0.551758 11.9215 3.99021 15.36 8.23176 15.36Z" fill="black"/>
<path fill-rule="evenodd" clip-rule="evenodd" d="M8.89772 10.7645V12.5599C8.89772 12.8053 8.69889 13.004 8.4535 13.004C8.36978 13.004 8.28894 12.9823 8.2175 12.9388L4.4871 10.6558C4.22304 10.4942 4.06152 10.2054 4.06152 9.89476V8.16462C4.06152 7.95965 4.22926 7.7919 4.43416 7.7919C4.49938 7.7919 4.56475 7.81056 4.62057 7.84476L8.52812 10.1215C8.75804 10.2551 8.89772 10.5005 8.89772 10.7645Z" fill="#01D494"/>
<path fill-rule="evenodd" clip-rule="evenodd" d="M10.6807 8.01243V11.6528C10.6807 11.7616 10.6249 11.861 10.5317 11.9107L9.67437 12.3921C9.66513 12.3983 9.65269 12.4046 9.64025 12.4077V10.3856C9.64025 10.1246 9.50359 9.88234 9.27685 9.74569L5.84766 7.6925V5.41263C5.84766 5.20759 6.01539 5.03992 6.2203 5.03992C6.28552 5.03992 6.35088 5.05849 6.40671 5.08959L10.3112 7.36952C10.541 7.50307 10.6807 7.74847 10.6807 8.01243Z" fill="#01D494"/>
<path fill-rule="evenodd" clip-rule="evenodd" d="M12.3919 10.6433C12.3919 10.7521 12.3329 10.8515 12.2366 10.9043L11.4259 11.3422V7.6397C11.4259 7.37564 11.2892 7.13654 11.0655 6.99981L7.55566 4.89695V2.73198C7.55566 2.66676 7.57416 2.60154 7.60524 2.54566C7.71096 2.36858 7.93771 2.30647 8.1147 2.40901L12.0222 4.67953C12.2522 4.81307 12.3919 5.05848 12.3919 5.32253V10.6433Z" fill="#01D494"/>
</g>
<defs>
<clipPath id="comp-clip">
<rect width="15.36" height="15.36" fill="white" transform="translate(0.551758)"/>
</clipPath>
</defs>
</svg>
