<svg width="24" height="25" viewBox="0 0 24 25" fill="none" xmlns="http://www.w3.org/2000/svg">
<g clip-path="url(#dai-clip)">
<path d="M12 0.5C18.628 0.5 24 5.87305 24 12.5C24 19.128 18.628 24.5 12 24.5C5.37305 24.5 0 19.1275 0 12.5C0 5.87305 5.37305 0.5 12 0.5Z" fill="#F5AC37"/>
<path d="M12.4422 13.3474H17.002C17.0992 13.3474 17.1451 13.3474 17.1521 13.2199C17.1894 12.7561 17.1894 12.2895 17.1521 11.8251C17.1521 11.7349 17.1073 11.6976 17.0096 11.6976H7.93477C7.82245 11.6976 7.79221 11.7349 7.79221 11.8402V13.1751C7.79221 13.3474 7.79221 13.3474 7.97203 13.3474H12.4422ZM16.6429 10.1376C16.6559 10.1036 16.6559 10.0663 16.6429 10.0328C16.5668 9.86703 16.4766 9.70881 16.3718 9.56031C16.2141 9.3065 16.0284 9.07268 15.8167 8.86262C15.7168 8.73572 15.6012 8.62178 15.4716 8.52512C14.8225 7.97269 14.0509 7.58173 13.2214 7.38516C12.8029 7.2912 12.3752 7.24638 11.9465 7.25016H7.91911C7.80679 7.25016 7.79167 7.29498 7.79167 7.39272V10.055C7.79167 10.1673 7.79167 10.1975 7.93423 10.1975H16.5889C16.5889 10.1975 16.664 10.1824 16.6791 10.1376H16.6424H16.6429ZM16.6429 14.9074C16.5155 14.8934 16.3869 14.8934 16.2595 14.9074H7.94233C7.83001 14.9074 7.79221 14.9074 7.79221 15.0576V17.6604C7.79221 17.7803 7.79221 17.8105 7.94233 17.8105H11.7823C11.9659 17.8245 12.1495 17.8116 12.3293 17.7732C12.8866 17.7333 13.4347 17.6123 13.9575 17.4131C14.1475 17.3472 14.3311 17.2613 14.5045 17.1582H14.5569C15.457 16.69 16.1882 15.9545 16.6494 15.0516C16.6494 15.0516 16.7018 14.9382 16.6429 14.9085V14.9074ZM6.28506 19.16V19.1152V17.3677V16.7753V15.0127C6.28506 14.915 6.28506 14.9004 6.16517 14.9004H4.5376C4.44742 14.9004 4.41016 14.9004 4.41016 14.7805V13.3555H6.15005C6.24725 13.3555 6.28506 13.3555 6.28506 13.228V11.8181C6.28506 11.7279 6.28506 11.7057 6.16517 11.7057H4.5376C4.44742 11.7057 4.41016 11.7057 4.41016 11.5859V10.2661C4.41016 10.1835 4.41016 10.1613 4.53004 10.1613H6.14249C6.25481 10.1613 6.28506 10.1613 6.28506 10.0188V5.97629C6.28506 5.85641 6.28506 5.82617 6.43518 5.82617H12.0599C12.4681 5.84237 12.8737 5.88719 13.2749 5.96117C14.1016 6.11399 14.896 6.40937 15.6223 6.83112C16.104 7.11462 16.5473 7.45698 16.9421 7.85119C17.2391 8.15953 17.5069 8.49326 17.7445 8.84858C17.9805 9.20876 18.1765 9.59379 18.3304 9.99609C18.3493 10.1009 18.4498 10.1716 18.5545 10.1538H19.897C20.0692 10.1538 20.0692 10.1538 20.0768 10.319V11.5491C20.0768 11.669 20.032 11.6993 19.9116 11.6993H18.8764C18.7716 11.6993 18.7414 11.6993 18.7489 11.8343C18.79 12.2911 18.79 12.7496 18.7489 13.2064C18.7489 13.3339 18.7489 13.349 18.892 13.349H20.0763C20.1286 13.4165 20.0763 13.484 20.0763 13.552C20.0838 13.639 20.0838 13.727 20.0763 13.8139V14.7217C20.0763 14.8491 20.039 14.8869 19.9261 14.8869H18.5086C18.4098 14.868 18.3137 14.9312 18.291 15.0295C17.9535 15.907 17.4135 16.6938 16.7158 17.3245C16.4609 17.554 16.1931 17.77 15.9134 17.9693C15.6131 18.1421 15.321 18.3219 15.0132 18.4645C14.4467 18.7193 13.8527 18.9073 13.243 19.0266C12.6641 19.1303 12.0772 19.1773 11.488 19.1692H6.2829V19.1616L6.28506 19.16Z" fill="#FEFEFD"/>
</g>
<defs>
<clipPath id="dai-clip">
<rect width="24" height="24" fill="white" transform="translate(0 0.5)"/>
</clipPath>
</defs>
</svg>
