<svg width="24" height="25" viewBox="0 0 24 25" fill="none" xmlns="http://www.w3.org/2000/svg">
<g clip-path="url(#dot-clip)">
<path fill-rule="evenodd" clip-rule="evenodd" d="M11.682 0.5C16.6344 0.54375 20.386 3.84935 21.1125 8.24288C21.9338 13.2103 18.5629 17.9461 13.6014 18.8016C12.9317 18.9171 12.2472 18.9624 11.5673 19.0012C10.1891 19.0798 8.79516 20.0129 8.47171 21.843C8.3789 22.368 8.25483 22.8877 8.1429 23.4093C7.98025 24.167 7.3382 24.6171 6.62767 24.4734C5.89328 24.3249 5.46889 23.6676 5.62771 22.896C5.8307 21.9097 6.04828 20.9263 6.25951 19.9417C6.99783 16.5003 7.73798 13.0592 8.47295 9.617C8.64213 8.82462 9.11 8.39178 9.81277 8.40543C10.5915 8.42057 11.19 9.13917 11.0293 9.90199C10.6444 11.7295 10.2429 13.5535 9.84891 15.379C9.77272 15.7321 9.70259 16.0865 9.62531 16.4394C9.59417 16.5815 9.61889 16.6529 9.7884 16.6338C10.8336 16.5159 11.8813 16.4182 12.9247 16.2858C15.7023 15.9334 18.0286 13.7224 18.5309 10.976C19.2016 7.30855 16.8325 3.87668 13.1606 3.19696C9.49658 2.51861 5.89077 5.14132 5.40043 8.8359C5.2655 9.85271 5.35707 10.8447 5.67775 11.8173C5.92596 12.57 5.58409 13.3169 4.88899 13.5379C4.16262 13.7687 3.45902 13.3783 3.21591 12.6095C1.55499 7.35721 4.61576 1.98244 9.99369 0.738587C10.6454 0.5879 11.323 0.548955 11.682 0.5Z" fill="black"/>
<path fill-rule="evenodd" clip-rule="evenodd" d="M10.8008 22.9537C10.8036 22.0922 11.4617 21.4365 12.3239 21.4363C13.1955 21.4361 13.871 22.1131 13.8589 22.9746C13.8469 23.8334 13.1809 24.494 12.3269 24.4944C11.4539 24.4949 10.798 23.8327 10.8008 22.9537Z" fill="#E6027A"/>
</g>
<defs>
<clipPath id="dot-clip">
<rect width="24" height="24" fill="white" transform="translate(0 0.5)"/>
</clipPath>
</defs>
</svg>
