<svg width="24" height="25" viewBox="0 0 24 25" fill="none" xmlns="http://www.w3.org/2000/svg">
<rect y="0.5" width="24" height="24" rx="12" fill="white"/>
<path fill-rule="evenodd" clip-rule="evenodd" d="M12 24.5C5.37225 24.5 0 19.1278 0 12.5C0 5.87225 5.37225 0.5 12 0.5C18.6278 0.5 24 5.87225 24 12.5C24 19.1278 18.6278 24.5 12 24.5ZM17.9955 12.6642L12.3735 3.5L6.75 12.665L12.3735 15.9298L17.9955 12.6642ZM18 13.712L12.3735 16.9753L6.75 13.7128L12.3735 21.4963L18 13.712Z" fill="#6A79FF" fill-opacity="0.2"/>
<path d="M12.373 3.5V10.1525L17.9958 12.665L12.373 3.5ZM12.373 16.976V21.4963L17.9995 13.712L12.373 16.976Z" fill="#A2A9E7"/>
<path d="M12.373 15.9297L17.9958 12.665L12.373 10.154V15.9297Z" fill="#6A79FF"/>
<path d="M6.75 12.665L12.3735 15.9297V10.154L6.75 12.665Z" fill="#A2A9E7"/>
</svg>
