<svg width="24" height="25" viewBox="0 0 24 25" fill="none" xmlns="http://www.w3.org/2000/svg">
<g clip-path="url(#ltc-clip)">
<path d="M12 23.2012C17.9102 23.2012 22.7012 18.4102 22.7012 12.5C22.7012 6.58992 17.9102 1.79883 12 1.79883C6.08992 1.79883 1.29883 6.58992 1.29883 12.5C1.29883 18.4102 6.08992 23.2012 12 23.2012Z" fill="white"/>
<path d="M12 0.5C9.62663 0.5 7.30655 1.20379 5.33316 2.52236C3.35977 3.84094 1.8217 5.71509 0.913451 7.9078C0.00519937 10.1005 -0.232441 12.5133 0.230582 14.8411C0.693605 17.1689 1.83649 19.3071 3.51472 20.9853C5.19295 22.6635 7.33115 23.8064 9.65892 24.2694C11.9867 24.7324 14.3995 24.4948 16.5922 23.5866C18.7849 22.6783 20.6591 21.1402 21.9776 19.1668C23.2962 17.1935 24 14.8734 24 12.5C24.0046 10.9287 23.6996 9.37191 23.1026 7.91848C22.5055 6.46505 21.628 5.14345 20.5202 4.02915C19.4123 2.91484 18.0959 2.02965 16.646 1.42412C15.196 0.818589 13.641 0.504572 12.0697 0.5H12ZM12.2034 12.9068L10.954 17.1199H17.6368C17.6811 17.1183 17.7252 17.1255 17.7667 17.141C17.8082 17.1565 17.8462 17.1801 17.8786 17.2103C17.911 17.2405 17.9371 17.2768 17.9554 17.3171C17.9738 17.3575 17.984 17.401 17.9855 17.4453V17.5557L17.4044 19.5605C17.3787 19.6553 17.3216 19.7386 17.2424 19.7967C17.1632 19.8548 17.0667 19.8842 16.9685 19.8801H6.74093L8.45521 14.04L6.53754 14.6211L6.97337 13.2845L8.89105 12.7034L11.3027 4.50969C11.3292 4.41541 11.3865 4.33272 11.4655 4.2748C11.5445 4.21688 11.6406 4.18705 11.7385 4.19007H14.3245C14.3687 4.18852 14.4129 4.19571 14.4544 4.21123C14.4958 4.22674 14.5339 4.25029 14.5662 4.28051C14.5986 4.31074 14.6247 4.34705 14.6431 4.38737C14.6614 4.42769 14.6716 4.47123 14.6731 4.5155V4.62591L12.6392 11.5412L14.5569 10.96L14.1501 12.3547L12.2034 12.9068Z" fill="#345D9D"/>
</g>
<defs>
<clipPath id="ltc-clip">
<rect width="24" height="24" fill="white" transform="translate(0 0.5)"/>
</clipPath>
</defs>
</svg>
