<svg width="17" height="16" viewBox="0 0 17 16" fill="none" xmlns="http://www.w3.org/2000/svg">
<g clip-path="url(#rep-clip)">
<path d="M8.51105 15.36C12.7526 15.36 16.1911 11.9215 16.1911 7.68C16.1911 3.43845 12.7526 0 8.51105 0C4.26951 0 0.831055 3.43845 0.831055 7.68C0.831055 11.9215 4.26951 15.36 8.51105 15.36Z" fill="#0E0E21"/>
<path d="M12.7993 9.472L11.8873 7.92C11.8553 7.856 11.7753 7.84 11.7273 7.888L11.1353 8.272C11.0873 8.304 11.0713 8.384 11.1033 8.432L11.6313 9.312C11.6473 9.344 11.6313 9.376 11.6153 9.392L8.54327 11.376C8.52727 11.392 8.49527 11.392 8.47927 11.376L5.43927 9.392C5.40727 9.376 5.40727 9.344 5.42327 9.312L5.95127 8.432C5.98327 8.384 5.96727 8.304 5.91927 8.272L5.32727 7.888C5.26327 7.856 5.19927 7.872 5.16727 7.92L4.25527 9.472C4.19128 9.584 4.22328 9.728 4.33527 9.792L8.41527 12.448C8.49527 12.496 8.59127 12.496 8.67127 12.448L12.7513 9.792C12.8313 9.712 12.8633 9.568 12.7993 9.472Z" fill="white"/>
<path d="M5.77521 7.056L6.36721 7.44C6.43121 7.472 6.49521 7.456 6.52721 7.408L8.44721 4.144C8.46321 4.112 8.52721 4.112 8.54321 4.144L10.4632 7.408C10.4952 7.472 10.5752 7.488 10.6232 7.44L11.2152 7.056C11.2632 7.024 11.2792 6.944 11.2472 6.896L8.99121 2.992C8.94321 2.912 8.87921 2.88 8.78321 2.88H8.23921C8.15921 2.88 8.07921 2.928 8.03121 2.992L5.74321 6.896C5.71121 6.944 5.72721 7.024 5.77521 7.056Z" fill="#2AE7A8"/>
</g>
<defs>
<clipPath id="rep-clip">
<rect width="15.36" height="15.36" fill="white" transform="translate(0.831055)"/>
</clipPath>
</defs>
</svg>
