<svg width="26" height="26" viewBox="0 0 26 26" fill="none" xmlns="http://www.w3.org/2000/svg">
<circle cx="13" cy="13" r="13" fill="white"/>
<path opacity="0.1" d="M13 26C20.1797 26 26 20.1797 26 13C26 5.8203 20.1797 0 13 0C5.8203 0 0 5.8203 0 13C0 20.1797 5.8203 26 13 26Z" fill="#FF007A"/>
<g clip-path="url(#uni-clip)">
<path d="M10.8824 7.09596C10.6953 7.0681 10.6864 7.05881 10.7755 7.04952C10.9448 7.02166 11.337 7.05881 11.6133 7.12382C12.255 7.28172 12.8343 7.69039 13.4493 8.40556L13.6097 8.6006L13.8414 8.56345C14.8307 8.39627 15.8468 8.5263 16.6935 8.93497C16.9252 9.04643 17.2906 9.26934 17.3352 9.32506C17.353 9.34364 17.3798 9.46438 17.3976 9.58512C17.46 10.0217 17.4332 10.3467 17.2996 10.5975C17.2283 10.7368 17.2283 10.774 17.2728 10.8947C17.3085 10.9876 17.4154 11.0526 17.5135 11.0526C17.7274 11.0526 17.9502 10.6997 18.0571 10.2074L18.1017 10.0124L18.1819 10.1052C18.6365 10.6347 18.993 11.3684 19.0464 11.8885L19.0643 12.0278L18.984 11.9071C18.8504 11.6935 18.7256 11.5542 18.5562 11.4334C18.2532 11.2198 17.9324 11.1548 17.0856 11.1083C16.3192 11.0619 15.8824 10.9969 15.4546 10.8483C14.7238 10.5975 14.3495 10.2724 13.4849 9.07429C13.1017 8.54488 12.861 8.25695 12.6204 8.01547C12.0946 7.48605 11.5687 7.20742 10.8824 7.09596Z" fill="#FF007A"/>
<path d="M17.5221 8.27557C17.5399 7.92262 17.5845 7.69043 17.6825 7.4768C17.7182 7.39321 17.7538 7.31891 17.7627 7.31891C17.7716 7.31891 17.7538 7.38392 17.7271 7.45823C17.6558 7.66256 17.6469 7.95049 17.6914 8.27557C17.7538 8.69352 17.7805 8.74925 18.2084 9.20436C18.4044 9.41798 18.6362 9.68733 18.7253 9.79879L18.8768 10.0031L18.7253 9.85451C18.5381 9.66876 18.1103 9.31581 18.0123 9.26937C17.9499 9.23222 17.941 9.23222 17.8964 9.27866C17.8608 9.31581 17.8519 9.37154 17.8519 9.64089C17.8429 10.0588 17.7895 10.3189 17.6558 10.5883C17.5845 10.7276 17.5756 10.6997 17.6379 10.5418C17.6825 10.4211 17.6914 10.3654 17.6914 9.96597C17.6914 9.15792 17.6023 8.96287 17.0586 8.6378C16.9249 8.5542 16.6932 8.43346 16.5595 8.36845C16.4169 8.30343 16.31 8.2477 16.3189 8.2477C16.3367 8.22913 16.8625 8.38702 17.0675 8.4799C17.3795 8.60993 17.433 8.61922 17.4686 8.60993C17.4953 8.58207 17.5132 8.50776 17.5221 8.27557Z" fill="#FF007A"/>
<path d="M11.2476 9.65942C10.8733 9.12072 10.6327 8.28481 10.6861 7.66251L10.704 7.46747L10.7931 7.48604C10.9535 7.51391 11.2298 7.62536 11.3635 7.70895C11.72 7.93186 11.8804 8.23837 12.0319 8.99998C12.0765 9.22289 12.1389 9.48295 12.1656 9.56654C12.2102 9.70586 12.3795 10.0309 12.5221 10.2353C12.6202 10.3839 12.5578 10.4582 12.335 10.4396C11.9963 10.4025 11.5417 10.0774 11.2476 9.65942Z" fill="#FF007A"/>
<path d="M17.0673 13.6997C15.3026 12.9566 14.6787 12.3158 14.6787 11.2291C14.6787 11.0712 14.6876 10.9412 14.6876 10.9412C14.6965 10.9412 14.7589 10.9969 14.8391 11.0619C15.1956 11.3591 15.5967 11.4891 16.7108 11.6563C17.3614 11.7585 17.7358 11.8328 18.0744 11.9535C19.1529 12.3251 19.8213 13.0867 19.9817 14.1176C20.0263 14.4148 19.9996 14.9814 19.9283 15.2786C19.8659 15.5108 19.6876 15.9381 19.6431 15.9474C19.6342 15.9474 19.6163 15.9009 19.6163 15.8266C19.5985 15.4365 19.4113 15.065 19.0994 14.7771C18.7251 14.4427 18.2438 14.1919 17.0673 13.6997Z" fill="#FF007A"/>
<path d="M15.8199 14.0062C15.8021 13.8669 15.7576 13.6904 15.7308 13.6161L15.6863 13.4768L15.7665 13.579C15.8823 13.7183 15.9715 13.8855 16.0517 14.1177C16.1141 14.2941 16.1141 14.3499 16.1141 14.6378C16.1141 14.9164 16.1052 14.9815 16.0517 15.1393C15.9626 15.3901 15.8556 15.5666 15.6773 15.7616C15.3565 16.1053 14.9376 16.291 14.3404 16.3746C14.2335 16.3839 13.9305 16.4118 13.6631 16.4304C12.9946 16.4675 12.549 16.5418 12.1479 16.6904C12.0945 16.709 12.041 16.7276 12.0321 16.7183C12.0142 16.6997 12.2905 16.5325 12.5134 16.4211C12.8253 16.2632 13.1462 16.1796 13.8503 16.0496C14.1978 15.9938 14.5544 15.9195 14.6435 15.8824C15.5258 15.5945 15.9626 14.8793 15.8199 14.0062Z" fill="#FF007A"/>
<path d="M16.6312 15.5016C16.3995 14.9722 16.346 14.4706 16.4708 13.9969C16.4886 13.9505 16.5064 13.9041 16.5243 13.9041C16.5421 13.9041 16.5956 13.9319 16.649 13.9691C16.756 14.0434 16.9788 14.1734 17.5492 14.4985C18.2711 14.9071 18.6811 15.2229 18.9663 15.5852C19.2159 15.901 19.3674 16.2632 19.4387 16.709C19.4833 16.9598 19.4565 17.5635 19.3941 17.8143C19.1981 18.6037 18.7524 19.2353 18.1018 19.5976C18.0038 19.6533 17.9235 19.6904 17.9146 19.6904C17.9057 19.6904 17.9414 19.5976 17.9949 19.4861C18.2088 19.0124 18.2355 18.5573 18.0751 18.0465C17.977 17.7307 17.772 17.3499 17.362 16.709C16.8719 15.966 16.756 15.7709 16.6312 15.5016Z" fill="#FF007A"/>
<path d="M9.99088 18.3436C10.6504 17.7678 11.4615 17.3591 12.2101 17.2291C12.531 17.1733 13.0657 17.1919 13.3599 17.2755C13.8322 17.4055 14.26 17.6842 14.4829 18.0278C14.6968 18.3622 14.7948 18.6501 14.8928 19.291C14.9285 19.5418 14.973 19.8018 14.982 19.8575C15.0533 20.1919 15.1959 20.452 15.3741 20.5913C15.6504 20.8049 16.1317 20.8142 16.6041 20.6284C16.6843 20.6006 16.7556 20.5727 16.7556 20.582C16.7734 20.6006 16.5328 20.7678 16.3723 20.8514C16.1495 20.9721 15.9713 21.0093 15.7306 21.0093C15.3028 21.0093 14.9374 20.7771 14.6433 20.3127C14.5809 20.2198 14.4561 19.9504 14.3492 19.6997C14.0372 18.9473 13.8768 18.7244 13.5114 18.4736C13.1905 18.26 12.7805 18.2136 12.4686 18.3715C12.0586 18.5758 11.9517 19.1238 12.2369 19.4582C12.3527 19.5975 12.5666 19.7089 12.7449 19.7368C13.0747 19.7832 13.3599 19.5139 13.3599 19.1702C13.3599 18.9473 13.2796 18.8173 13.0657 18.7151C12.7805 18.5851 12.4686 18.7337 12.4775 19.0216C12.4775 19.1424 12.531 19.2167 12.6468 19.2724C12.7181 19.3096 12.7181 19.3096 12.6647 19.3003C12.4062 19.2445 12.3438 18.9102 12.5488 18.6966C12.7984 18.4365 13.3242 18.5479 13.5025 18.9102C13.5738 19.0588 13.5827 19.356 13.5203 19.5418C13.3688 19.9504 12.941 20.1641 12.5042 20.0433C12.2101 19.9597 12.0853 19.8761 11.7288 19.4953C11.105 18.8266 10.8643 18.6966 9.97305 18.5572L9.80371 18.5294L9.99088 18.3436Z" fill="#FF007A"/>
<path fill-rule="evenodd" clip-rule="evenodd" d="M5.30245 3.39938C7.3791 6.02786 10.5787 10.1146 10.7392 10.3375C10.8729 10.5232 10.8194 10.6997 10.5966 10.8297C10.4718 10.904 10.2133 10.9783 10.0885 10.9783C9.94594 10.9783 9.7766 10.904 9.66074 10.7833C9.58053 10.6997 9.23293 10.1703 8.44862 8.89783C7.85147 7.9226 7.34345 7.11455 7.33454 7.10526C7.29889 7.08669 7.29889 7.08669 8.38623 9.11145C9.0725 10.3839 9.29532 10.839 9.29532 10.8947C9.29532 11.0155 9.25967 11.0805 9.11707 11.2477C8.87643 11.5263 8.76947 11.8421 8.68926 12.5015C8.60013 13.2353 8.35949 13.7554 7.67322 14.6378C7.27215 15.1579 7.20976 15.2508 7.11172 15.4644C6.98694 15.7245 6.95129 15.8731 6.93347 16.2074C6.91564 16.5604 6.95129 16.7833 7.04933 17.1176C7.13846 17.4149 7.2365 17.6099 7.47714 17.9907C7.68213 18.3251 7.80691 18.5759 7.80691 18.6687C7.80691 18.743 7.82473 18.743 8.14559 18.6687C8.91208 18.483 9.54487 18.1672 9.89247 17.7771C10.1064 17.5356 10.1598 17.4056 10.1598 17.0712C10.1598 16.8576 10.1509 16.8111 10.0975 16.6811C10.0083 16.4768 9.83899 16.3096 9.47357 16.0495C8.99229 15.7059 8.7873 15.4272 8.73382 15.0557C8.68926 14.7399 8.74274 14.5263 9.01012 13.9412C9.28641 13.3375 9.35771 13.0867 9.40227 12.4737C9.42901 12.0836 9.47357 11.9257 9.58053 11.805C9.69639 11.6749 9.79443 11.6285 10.0707 11.5913C10.5253 11.5263 10.8194 11.4056 11.0511 11.1734C11.2561 10.9783 11.3452 10.7833 11.3541 10.4954L11.3631 10.2817L11.2472 10.1517C10.8283 9.65015 5.02616 3 4.99942 3C4.99051 3 5.13311 3.17647 5.30245 3.39938ZM8.03864 16.6068C8.13667 16.4303 8.0832 16.2074 7.92277 16.096C7.77126 15.9938 7.53953 16.0402 7.53953 16.1796C7.53953 16.2167 7.55735 16.2539 7.61083 16.2724C7.69104 16.3189 7.69995 16.3653 7.63757 16.4675C7.57518 16.5697 7.57518 16.6625 7.65539 16.7276C7.78017 16.8297 7.94951 16.774 8.03864 16.6068Z" fill="#FF007A"/>
<path fill-rule="evenodd" clip-rule="evenodd" d="M11.6489 11.7214C11.435 11.7864 11.23 12.0279 11.1676 12.2694C11.1319 12.418 11.1498 12.6873 11.2121 12.7709C11.3102 12.9009 11.3993 12.9381 11.6489 12.9381C12.1391 12.9381 12.558 12.7152 12.6025 12.4458C12.6471 12.2229 12.4599 11.9164 12.2014 11.7771C12.0678 11.7028 11.7915 11.6749 11.6489 11.7214ZM12.2193 12.1858C12.2906 12.0743 12.2638 11.9536 12.1301 11.87C11.8895 11.7121 11.5241 11.8421 11.5241 12.0836C11.5241 12.2043 11.7113 12.3344 11.8895 12.3344C12.0054 12.3344 12.1658 12.2601 12.2193 12.1858Z" fill="#FF007A"/>
</g>
<defs>
<clipPath id="uni-clip">
<rect width="15" height="18" fill="white" transform="translate(5 3)"/>
</clipPath>
</defs>
</svg>
