<svg width="24" height="25" viewBox="0 0 24 25" fill="none" xmlns="http://www.w3.org/2000/svg">
<g clip-path="url(#usdt-clip)">
<path d="M23.9783 12.4958C23.9783 19.0904 18.6326 24.4361 12.038 24.4361C5.44357 24.4361 0.0976562 19.0904 0.0976562 12.4958C0.0976562 5.90131 5.44357 0.555523 12.038 0.555523C18.6326 0.555523 23.9783 5.90131 23.9783 12.4958Z" fill="#1BA27A"/>
<path d="M17.6422 6.57654H6.33594V9.30609H10.6243V13.318H13.3538V9.30609H17.6422V6.57654Z" fill="white"/>
<path d="M12.0154 13.7454C8.46793 13.7454 5.59187 13.1839 5.59187 12.4913C5.59187 11.7987 8.46781 11.2372 12.0154 11.2372C15.5629 11.2372 18.4388 11.7987 18.4388 12.4913C18.4388 13.1839 15.5629 13.7454 12.0154 13.7454ZM19.2279 12.7004C19.2279 11.8072 15.9988 11.0833 12.0154 11.0833C8.03211 11.0833 4.80273 11.8072 4.80273 12.7004C4.80273 13.4869 7.30673 14.1421 10.6248 14.2873V20.0466H13.3541V14.2896C16.6978 14.149 19.2279 13.4909 19.2279 12.7004Z" fill="white"/>
</g>
<defs>
<clipPath id="usdt-clip">
<rect width="24" height="24" fill="white" transform="translate(0 0.5)"/>
</clipPath>
</defs>
</svg>
