<svg width="24" height="25" viewBox="0 0 24 25" fill="none" xmlns="http://www.w3.org/2000/svg">
<path d="M20.6126 5.1563L17.7228 6.62863L3.76815 13.7364C3.72096 13.3765 3.69722 13.014 3.69707 12.651C3.69898 11.2027 4.07922 9.78005 4.80012 8.52394C5.52103 7.26784 6.55758 6.22186 7.80712 5.48962C9.05665 4.75739 10.4758 4.3643 11.924 4.34929C13.3722 4.33428 14.7992 4.69788 16.0636 5.40406L17.7177 4.56128L17.9645 4.43537C16.4492 3.33558 14.6594 2.67615 12.7928 2.52996C10.9262 2.38378 9.05555 2.75653 7.38756 3.60702C5.71957 4.45751 4.31921 5.75262 3.34125 7.34922C2.36329 8.94581 1.8458 10.7817 1.846 12.654C1.846 12.9126 1.85581 13.1702 1.87544 13.4267C1.90294 13.7901 1.82236 14.1534 1.64385 14.471C1.46534 14.7887 1.19687 15.0464 0.872229 15.2118L0 15.6566V17.731L2.56795 16.4222L3.39956 15.9977L4.21899 15.5804L18.9301 8.08472L20.5832 7.24295L24 5.50154V3.42809L20.6126 5.1563Z" fill="black"/>
<path d="M24 7.57703L5.05466 17.2233L3.40159 18.0671L0 19.8004V21.8728L3.37824 20.1517L6.26807 18.6794L20.2369 11.5615C20.2841 11.9237 20.3079 12.2887 20.308 12.654C20.3071 14.104 19.927 15.5285 19.2054 16.7861C18.4838 18.0437 17.4458 19.0908 16.1944 19.8232C14.9431 20.5557 13.5219 20.9481 12.0721 20.9616C10.6222 20.9751 9.19397 20.609 7.92926 19.8999L7.82772 19.9537L6.03452 20.8676C7.54942 21.9674 9.33888 22.627 11.2052 22.7736C13.0715 22.9201 14.942 22.5479 16.6099 21.698C18.2779 20.848 19.6785 19.5536 20.6569 17.9575C21.6353 16.3615 22.1534 14.5261 22.154 12.654C22.154 12.3931 22.1438 12.1321 22.1246 11.8742C22.0971 11.511 22.1776 11.1478 22.3559 10.8302C22.5342 10.5126 22.8024 10.2548 23.1268 10.0891L24 9.64438V7.57703Z" fill="black"/>
</svg>
