<svg width="24" height="25" viewBox="0 0 24 25" fill="none" xmlns="http://www.w3.org/2000/svg">
<path d="M20.4852 2.5H23.954L16.7352 9.6475C14.121 12.2345 9.88258 12.2345 7.26648 9.6475L0.0449219 2.5H3.51648L9.00086 7.92953C9.79993 8.71708 10.8768 9.15857 11.9988 9.15857C13.1207 9.15857 14.1976 8.71708 14.9966 7.92953L20.4852 2.5Z" fill="#23292F"/>
<path d="M3.47109 22.375H0L7.26562 15.1834C9.87984 12.5964 14.1183 12.5964 16.7344 15.1834L24 22.375H20.5312L15 16.9014C14.2009 16.1138 13.124 15.6723 12.0021 15.6723C10.8802 15.6723 9.80329 16.1138 9.00422 16.9014L3.47109 22.375Z" fill="#23292F"/>
</svg>
