<svg width="24" height="25" viewBox="0 0 24 25" fill="none" xmlns="http://www.w3.org/2000/svg">
<g clip-path="url(#yfi-clip)">
<path fill-rule="evenodd" clip-rule="evenodd" d="M12 0.5C18.6264 0.5 24 5.8736 24 12.5C24 19.1264 18.6264 24.5 12 24.5C5.3736 24.5 0 19.1264 0 12.5C0 5.8736 5.3736 0.5 12 0.5Z" fill="#006AE3"/>
<path d="M11.5059 17.5592V7.5752H12.5931V17.5592H11.5059Z" fill="white"/>
<path d="M17.0395 10.9016L13.6819 11.792L12.9331 8.30717L13.9315 8.08157L14.3251 9.73277C14.3251 9.73277 15.2323 8.24477 14.0227 6.70397C13.3099 5.91197 12.9715 5.87837 12.1723 5.75357C11.4691 5.65277 9.8347 5.89037 9.3475 7.79837C9.1411 9.02717 9.3739 9.93677 10.9579 11.1272L10.8691 12.452C10.8691 12.452 9.1003 11.2064 8.6443 10.3328C8.2915 9.64157 7.6867 8.27597 8.7787 6.37517C9.3667 5.42477 10.5259 4.51277 12.5683 4.60877C13.5955 4.65197 16.1035 5.90717 15.7147 8.83997C15.6475 9.38957 15.3619 10.1216 15.3619 10.1216L16.7395 9.81437L17.0395 10.9016Z" fill="white"/>
<path d="M15.1228 18.7136C14.5084 19.6472 13.3252 20.528 11.2876 20.3792C10.2604 20.3096 7.78837 18.9872 8.25397 16.0664C8.33557 15.5192 8.64037 14.7968 8.64037 14.7968L7.25557 15.0656L6.98438 13.9736L10.366 13.172L11.0236 16.676L10.018 16.8752L9.66757 15.212C9.66757 15.212 8.72197 16.6736 9.88837 18.248C10.5796 19.0592 10.9156 19.1 11.7148 19.2464C12.4132 19.3664 14.0548 19.1696 14.5924 17.276C14.83 16.0544 14.6212 15.1376 13.0708 13.904L13.1956 12.5816C13.1956 12.5816 14.9308 13.8728 15.3628 14.7584C15.694 15.4616 16.2628 16.844 15.1228 18.7136Z" fill="white"/>
</g>
<defs>
<clipPath id="yfi-clip">
<rect width="24" height="24" fill="white" transform="translate(0 0.5)"/>
</clipPath>
</defs>
</svg>
