<svg width="16" height="16" viewBox="0 0 16 16" fill="none" xmlns="http://www.w3.org/2000/svg">
<g clip-path="url(#zrx-clip)">
<path fill-rule="evenodd" clip-rule="evenodd" d="M5.23577 11.83C4.47444 12.4105 3.71334 12.9906 2.95226 13.5709C1.26507 12.1643 0.191406 10.0465 0.191406 7.67812C0.191406 6.28369 0.563486 4.97625 1.21404 3.84943L4.7069 8.41858L3.41107 9.76728C3.56156 10.0727 3.78792 10.4567 4.1251 10.8515C4.51806 11.3116 4.924 11.6256 5.23577 11.83Z" fill="#004466"/>
<path fill-rule="evenodd" clip-rule="evenodd" d="M12.0128 10.3028C12.5933 11.0641 13.1734 11.8252 13.7537 12.5863C12.347 14.2735 10.2293 15.3472 7.86092 15.3472C6.46647 15.3472 5.15903 14.9751 4.03223 14.3245L8.60138 10.8317L9.95008 12.1275C10.2555 11.977 10.6395 11.7507 11.0343 11.4135C11.4944 11.0205 11.8084 10.6146 12.0128 10.3028Z" fill="#004466"/>
<path fill-rule="evenodd" clip-rule="evenodd" d="M10.4854 3.52625C11.2467 2.94579 12.0078 2.3656 12.7689 1.7854C14.4561 3.19199 15.5297 5.3097 15.5297 7.67812C15.5297 9.07257 15.1577 10.38 14.5071 11.5068L11.0143 6.93766L12.3101 5.58896C12.1596 5.28354 11.9332 4.89956 11.596 4.50473C11.2031 4.04459 10.7972 3.73069 10.4854 3.52625Z" fill="#004466"/>
<path fill-rule="evenodd" clip-rule="evenodd" d="M3.70865 5.05345C3.12819 4.29209 2.54797 3.53102 1.96777 2.76992C3.37439 1.08273 5.49209 0.00906372 7.86051 0.00906372C9.25496 0.00906372 10.5624 0.381144 11.6892 1.0317L7.12006 4.52455L5.77136 3.22875C5.46591 3.37921 5.08193 3.60558 4.68711 3.94276C4.22696 4.33574 3.91308 4.74167 3.70865 5.05345Z" fill="#004466"/>
</g>
<defs>
<clipPath id="zrx-clip">
<rect width="15.36" height="15.36" fill="white" transform="translate(0.191406)"/>
</clipPath>
</defs>
</svg>
