<svg width="16" height="16" viewBox="0 0 16 16" fill="none" xmlns="http://www.w3.org/2000/svg">
<path fill-rule="evenodd" clip-rule="evenodd" d="M14.6668 7.05011C14.6668 7.33184 14.4384 7.56023 14.1567 7.56023H14.1509C14.0151 7.56026 13.885 7.50553 13.7901 7.40841C13.6952 7.3113 13.6434 7.18 13.6466 7.04425V5.50218C13.6466 3.47345 12.5267 2.35354 10.498 2.35354H5.50236C3.46777 2.35354 2.35372 3.47345 2.35372 5.50218V10.5036C2.35372 12.5324 3.47363 13.6464 5.50236 13.6464H10.498C12.5326 13.6464 13.6466 12.5265 13.6466 10.5036C13.6466 10.2219 13.875 9.99353 14.1567 9.99353C14.4384 9.99353 14.6668 10.2219 14.6668 10.5036C14.6668 13.0718 13.072 14.6666 10.5038 14.6666H5.50236C2.92834 14.6666 1.3335 13.0718 1.3335 10.5036V5.50218C1.3335 2.92815 2.92834 1.33331 5.50236 1.33331H10.498C13.0603 1.33331 14.6668 2.92815 14.6668 5.50218V7.05011ZM4.64044 11.1252V6.89766V6.85662C4.645 6.7218 4.70339 6.59442 4.80256 6.50297C4.90172 6.41151 5.0334 6.36361 5.16815 6.36996C5.30347 6.37454 5.43141 6.43274 5.52379 6.53172C5.61618 6.6307 5.66542 6.76235 5.66067 6.89766V11.1603C5.65096 11.4421 5.4147 11.6626 5.13297 11.6529C4.85124 11.6432 4.63073 11.4069 4.64044 11.1252ZM7.5135 4.88066V11.131C7.5135 11.4128 7.74189 11.6411 8.02362 11.6411C8.30535 11.6411 8.53373 11.4128 8.53373 11.131V4.88066C8.53373 4.59893 8.30535 4.37054 8.02362 4.37054C7.74189 4.37054 7.5135 4.59893 7.5135 4.88066ZM10.3397 11.1252V9.13161C10.3397 8.84988 10.568 8.6215 10.8498 8.6215C11.1315 8.6215 11.3599 8.84988 11.3599 9.13161V11.1252C11.3599 11.4069 11.1315 11.6353 10.8498 11.6353C10.568 11.6353 10.3397 11.4069 10.3397 11.1252Z" fill="currentColor"/>
</svg>
