<svg width="16" height="16" viewBox="0 0 16 16" fill="none" xmlns="http://www.w3.org/2000/svg">
<path d="M14.1569 8.45146C14.4385 8.45146 14.6668 8.22308 14.6668 7.94135V7.2612C14.6668 4.56404 13.4654 3.25064 11.0038 3.25064H9.18698C8.89121 3.25205 8.61168 3.11547 8.43093 2.88125L7.84485 2.10142C7.46623 1.61538 6.88423 1.33183 6.26829 1.33332H4.99064C2.56427 1.33332 1.3335 2.73467 1.3335 5.50218V10.5036C1.3335 13.0718 2.92764 14.6666 5.50053 14.6666H10.4939C13.061 14.6666 14.661 13.0718 14.661 10.5036C14.6329 10.2414 14.4117 10.0426 14.1481 10.0426C13.8846 10.0426 13.6634 10.2414 13.6353 10.5036C13.6353 12.5265 12.5218 13.6464 10.4939 13.6464H5.49467C3.46683 13.6464 2.35328 12.5324 2.35328 10.5036V10.017H10.5584C10.84 10.017 11.0683 9.7886 11.0683 9.50687C11.0683 9.22514 10.84 8.99676 10.5584 8.99676H2.35328V5.47873C2.35328 3.2741 3.13862 2.33009 4.98478 2.33009H6.27416C6.5699 2.33447 6.84781 2.4724 7.0302 2.70535L7.61628 3.47932C7.98828 3.97248 8.56943 4.26318 9.18698 4.26501H10.998C12.9027 4.26501 13.6412 5.1152 13.6412 7.2612V7.94135C13.6412 8.07766 13.6957 8.20831 13.7926 8.30414C13.8895 8.39998 14.0207 8.45303 14.1569 8.45146Z" fill="currentColor"/>
</svg>
