<svg width="16" height="16" viewBox="0 0 16 16" fill="none" xmlns="http://www.w3.org/2000/svg">
<path fill-rule="evenodd" clip-rule="evenodd" d="M5.37208 4.90256C5.37208 3.46259 6.55078 2.29129 7.99984 2.29129C9.44889 2.29129 10.6276 3.46259 10.6276 4.90256C10.6276 6.34186 9.44889 7.51316 7.99984 7.51316C6.55078 7.51316 5.37208 6.34186 5.37208 4.90256ZM4.40806 4.90256C4.40806 6.86984 6.01946 8.47113 7.99984 8.47113C9.98021 8.47113 11.5909 6.86984 11.5909 4.90256C11.5909 2.93461 9.98021 1.33331 7.99984 1.33331C6.01946 1.33331 4.40806 2.93461 4.40806 4.90256ZM7.31824 14.6566C7.54164 14.6633 7.76906 14.6666 7.99984 14.6666C10.2895 14.6666 13.3332 14.4127 13.3332 12.22C13.3332 9.75944 9.31875 9.75944 7.99984 9.75944C5.71019 9.75944 2.6665 10.0134 2.6665 12.2067C2.6665 12.8634 2.97376 13.7493 4.43757 14.242C4.69049 14.3287 4.96286 14.192 5.04873 13.942C5.13393 13.692 4.99908 13.4207 4.74684 13.336C3.74525 12.9987 3.62986 12.53 3.62986 12.2067C3.62986 11.2181 5.10038 10.7167 7.99984 10.7167C10.8993 10.7167 12.3698 11.2227 12.3698 12.22C12.3698 13.208 10.8993 13.7087 7.99984 13.7087C7.77845 13.7087 7.56042 13.706 7.34575 13.7C7.08814 13.702 6.85871 13.9007 6.85133 14.1647C6.84328 14.4293 7.05258 14.65 7.31824 14.6566Z" fill="currentColor"/>
</svg>
