<svg width="16" height="16" viewBox="0 0 16 16" fill="none" xmlns="http://www.w3.org/2000/svg">
<path fill-rule="evenodd" clip-rule="evenodd" d="M5.19009 1.66669H10.8096C12.9365 1.66669 14.6668 3.43654 14.6668 5.61263V10.3874C14.6668 12.5635 12.9365 14.3334 10.8096 14.3334C10.5643 14.3334 10.3652 14.1296 10.3652 13.8786C10.3652 13.6276 10.5643 13.4239 10.8096 13.4239C12.4464 13.4239 13.7779 12.0621 13.7779 10.3874V6.57668H11.5889C10.8701 6.57729 10.284 7.17633 10.2834 7.91241C10.284 8.64848 10.8701 9.24753 11.5889 9.24813H12.4985C12.7439 9.24813 12.943 9.45186 12.943 9.70287C12.943 9.95389 12.7439 10.1576 12.4985 10.1576H11.5889C10.3794 10.157 9.39513 9.14991 9.39453 7.91241C9.39513 6.6749 10.3794 5.6678 11.5889 5.6672H13.7779V5.61263C13.7779 3.93797 12.4464 2.57617 10.8096 2.57617H5.19009C3.87098 2.57617 2.76401 3.46625 2.37824 4.68556H8.23661C8.48194 4.68556 8.68105 4.88929 8.68105 5.1403C8.68105 5.39193 8.48194 5.59505 8.23661 5.59505H2.22416C2.22416 5.59808 2.22372 5.60096 2.22327 5.60384C2.22283 5.60672 2.22239 5.6096 2.22239 5.61263V10.3874C2.22239 12.0621 3.55335 13.4239 5.19009 13.4239H8.01735C8.26268 13.4239 8.46179 13.6276 8.46179 13.8786C8.46179 14.1296 8.26268 14.3334 8.01735 14.3334H5.19009C3.06327 14.3334 1.3335 12.5635 1.3335 10.3874V5.61263C1.3335 3.43654 3.06327 1.66669 5.19009 1.66669ZM11.2408 7.87142C11.2408 7.6204 11.4399 7.41668 11.6853 7.41668H11.8873C12.1327 7.41668 12.3318 7.6204 12.3318 7.87142C12.3318 8.12244 12.1327 8.32616 11.8873 8.32616H11.6853C11.4399 8.32616 11.2408 8.12244 11.2408 7.87142Z" fill="currentColor"/>
</svg>
